<?xml version="1.0" encoding="utf-8"?>
<!-- Generator: Adobe Illustrator 19.1.0, SVG Export Plug-In . SVG Version: 6.00 Build 0)  -->
<svg version="1.1" id="Layer_1" xmlns="http://www.w3.org/2000/svg" xmlns:xlink="http://www.w3.org/1999/xlink" x="0px" y="0px"
	 viewBox="0 0 1500 240.1" style="enable-background:new 0 0 1500 240.1;" xml:space="preserve">
<style type="text/css">
	.st0{fill:none;}
	.st1{fill:#2E2A25;}
	.st2{fill:#7ECDC3;}
</style>
<g>
	<path class="st0" d="M499.4,91.9c-4.8,0-9.1,0.7-13.3,2.2c-4.1,1.4-7.9,3.4-11.2,6.1c-3.4,2.7-6.2,6-8.7,9.7
		c-2.4,3.8-4.2,8.1-5.4,12.9h77.5C533,102.2,520,91.9,499.4,91.9z"/>
	<path class="st1" d="M107.9,192.2c-6.3,4.6-14.3,7-23.9,7c-12.3,0-22.5-4.1-30.3-12.1c-7.9-8.1-12.4-19-13.4-32.8h119.8l0.2-9.1
		c0-27.6-7.1-49.1-21.3-64.7C124.6,64.8,105.2,57,80.6,57c-24.3,0-43.9,8-58.7,24.2C7.3,97.6,0,119.1,0,145.4
		c0,26.7,7.5,48.1,22.6,64.2c15.2,16,35.1,24.1,60.1,24.1c8.7,0,16.7-1,24.2-2.8c7.4-1.9,14.3-4.7,20.8-8.6c6.4-4,12.4-9.1,18-15.1
		c5.7-6.1,10.9-13.5,16-22.1l-32.6-18.2C121.2,179.2,114.1,187.7,107.9,192.2z M48.4,109.9c2.3-3.7,5.2-7,8.7-9.7
		c3.3-2.7,7.1-4.8,11.2-6.1c4.1-1.4,8.5-2.2,13.2-2.2c20.6,0,33.6,10.3,39,30.9H42.9C44.1,117.9,46,113.7,48.4,109.9z"/>
	<polygon class="st1" points="289.7,155.6 246.5,61.6 203.2,61.6 289.4,240.3 376.2,61.6 332.8,61.6 	"/>
	<path class="st1" d="M525.8,192.2c-6.3,4.6-14.3,7-23.9,7c-12.3,0-22.5-4.1-30.3-12.1c-7.9-8.1-12.4-19-13.4-32.8H578l0.2-9.1
		c0-27.6-7.1-49.1-21.2-64.7C542.6,64.8,523.1,57,498.5,57c-24.3,0-43.9,8-58.7,24.2c-14.6,16.3-22.1,37.8-22.1,64.1
		c0,26.7,7.6,48.1,22.7,64.2c15.1,16,35.2,24.1,60.1,24.1c8.7,0,16.7-1,24.1-2.8c7.5-1.9,14.3-4.7,20.8-8.6c6.4-4,12.5-9.1,18-15.1
		c5.6-6.1,10.9-13.5,16-22.1l-32.6-18.2C539.1,179.2,532,187.7,525.8,192.2z M466.3,109.9c2.4-3.7,5.2-7,8.7-9.7
		c3.3-2.7,7.1-4.8,11.2-6.1c4.1-1.4,8.5-2.2,13.3-2.2c20.6,0,33.5,10.3,38.9,30.9h-77.5C462.1,117.9,463.8,113.7,466.3,109.9z"/>
	<polygon class="st1" points="961.8,0.4 923.3,0.4 923.3,61.6 893.3,61.6 893.3,97.7 923.3,97.7 923.3,233.7 961.8,233.7 
		961.8,97.7 991.8,97.7 991.8,61.6 961.8,61.6 	"/>
	<path class="st1" d="M1164,157.6c0,27.7-11,41.6-32.8,41.6c-21.8,0-32.8-13.9-32.8-41.6v-96h-38.6v96.8c0,15.3,1.6,26.9,4.9,34.7
		c3.2,8.7,8.9,16.6,17,23.5c13,11.3,29.5,17,49.5,17c20.1,0,36.7-5.7,49.8-17c7.9-6.9,13.5-14.8,16.7-23.5c3.3-9.8,5-21.3,5-34.7
		V61.6H1164V157.6z"/>
	<path class="st1" d="M1443.5,57c-20.7,0-37.1,8.2-49.3,24.7c-11-16.5-25.9-24.7-44.8-24.7c-8.5,0-15.5,1.4-21.1,4.2
		c-5.2,2.9-11.6,8.1-19,15.8V61.6h-38.7v172h38.7v-91.1c0-17.6,2.4-30.4,7.4-38.5c5-8.1,12.9-12.2,23.7-12.2
		c17.3,0,25.9,14.8,25.9,44.6v97.2h38.7v-91.1c0-17.8,2.5-30.7,7.3-38.6c4.9-8.1,12.6-12.1,23.2-12.1c9.2,0,15.7,3.3,19.7,10.2
		c3.9,6.6,5.8,17.9,5.8,34v97.6h38.9V125.5C1500,79.9,1481.1,57,1443.5,57z"/>
	<polygon class="st2" points="647.6,233.7 743,233.7 743,154.3 785.4,154.3 785.4,233.7 824.1,233.7 824.1,57 647.6,57 	"/>
</g>
</svg>
