<?xml version="1.0" encoding="utf-8"?>
<!-- Generator: Adobe Illustrator 16.0.0, SVG Export Plug-In . SVG Version: 6.00 Build 0)  -->
<!DOCTYPE svg PUBLIC "-//W3C//DTD SVG 1.1//EN" "http://www.w3.org/Graphics/SVG/1.1/DTD/svg11.dtd">
<svg version="1.1" id="Layer_1" xmlns="http://www.w3.org/2000/svg" xmlns:xlink="http://www.w3.org/1999/xlink" x="0px" y="0px"
	 width="30px" height="30px" viewBox="0 0 30 30" enable-background="new 0 0 30 30" xml:space="preserve">
<g>
	<path d="M27.5,29.75h-25c-1.378,0-2.5-1.122-2.5-2.5v-22c0-1.378,1.122-2.5,2.5-2.5h25c1.378,0,2.5,1.122,2.5,2.5v22
		C30,28.628,28.878,29.75,27.5,29.75z M2.5,3.75C1.673,3.75,1,4.423,1,5.25v22c0,0.827,0.673,1.5,1.5,1.5h25
		c0.827,0,1.5-0.673,1.5-1.5v-22c0-0.827-0.673-1.5-1.5-1.5H2.5z"/>
	<g>
		<path d="M7.5,5.25C7.224,5.25,7,5.026,7,4.75v-4c0-0.276,0.224-0.5,0.5-0.5S8,0.474,8,0.75v4C8,5.026,7.776,5.25,7.5,5.25z"/>
		<path d="M22.5,5.25c-0.275,0-0.5-0.224-0.5-0.5v-4c0-0.276,0.225-0.5,0.5-0.5S23,0.474,23,0.75v4C23,5.026,22.775,5.25,22.5,5.25z
			"/>
		<path d="M25,8.75H5c-0.276,0-0.5-0.224-0.5-0.5s0.224-0.5,0.5-0.5h20c0.275,0,0.5,0.224,0.5,0.5S25.275,8.75,25,8.75z"/>
		<path d="M9,12.75H5c-0.276,0-0.5-0.224-0.5-0.5s0.224-0.5,0.5-0.5h4c0.276,0,0.5,0.224,0.5,0.5S9.276,12.75,9,12.75z"/>
		<path d="M17,12.75h-4c-0.276,0-0.5-0.224-0.5-0.5s0.224-0.5,0.5-0.5h4c0.275,0,0.5,0.224,0.5,0.5S17.275,12.75,17,12.75z"/>
		<path d="M25,12.75h-4c-0.275,0-0.5-0.224-0.5-0.5s0.225-0.5,0.5-0.5h4c0.275,0,0.5,0.224,0.5,0.5S25.275,12.75,25,12.75z"/>
		<path d="M9,16.75H5c-0.276,0-0.5-0.225-0.5-0.5s0.224-0.5,0.5-0.5h4c0.276,0,0.5,0.225,0.5,0.5S9.276,16.75,9,16.75z"/>
		<path d="M17,16.75h-4c-0.276,0-0.5-0.225-0.5-0.5s0.224-0.5,0.5-0.5h4c0.275,0,0.5,0.225,0.5,0.5S17.275,16.75,17,16.75z"/>
		<path d="M25,16.75h-4c-0.275,0-0.5-0.225-0.5-0.5s0.225-0.5,0.5-0.5h4c0.275,0,0.5,0.225,0.5,0.5S25.275,16.75,25,16.75z"/>
		<path d="M9,20.75H5c-0.276,0-0.5-0.225-0.5-0.5s0.224-0.5,0.5-0.5h4c0.276,0,0.5,0.225,0.5,0.5S9.276,20.75,9,20.75z"/>
		<path d="M17,20.75h-4c-0.276,0-0.5-0.225-0.5-0.5s0.224-0.5,0.5-0.5h4c0.275,0,0.5,0.225,0.5,0.5S17.275,20.75,17,20.75z"/>
		<path d="M25,20.75h-4c-0.275,0-0.5-0.225-0.5-0.5s0.225-0.5,0.5-0.5h4c0.275,0,0.5,0.225,0.5,0.5S25.275,20.75,25,20.75z"/>
		<path d="M9,24.75H5c-0.276,0-0.5-0.225-0.5-0.5s0.224-0.5,0.5-0.5h4c0.276,0,0.5,0.225,0.5,0.5S9.276,24.75,9,24.75z"/>
		<path d="M17,24.75h-4c-0.276,0-0.5-0.225-0.5-0.5s0.224-0.5,0.5-0.5h4c0.275,0,0.5,0.225,0.5,0.5S17.275,24.75,17,24.75z"/>
		<path d="M25,24.75h-4c-0.275,0-0.5-0.225-0.5-0.5s0.225-0.5,0.5-0.5h4c0.275,0,0.5,0.225,0.5,0.5S25.275,24.75,25,24.75z"/>
	</g>
</g>
</svg>
