<?xml version="1.0" encoding="utf-8"?>
<!-- Generator: Adobe Illustrator 16.0.0, SVG Export Plug-In . SVG Version: 6.00 Build 0)  -->
<!DOCTYPE svg PUBLIC "-//W3C//DTD SVG 1.1//EN" "http://www.w3.org/Graphics/SVG/1.1/DTD/svg11.dtd">
<svg version="1.1" id="Layer_1" xmlns="http://www.w3.org/2000/svg" xmlns:xlink="http://www.w3.org/1999/xlink" x="0px" y="0px"
	 width="24px" height="24px" viewBox="0 0 24 24" enable-background="new 0 0 24 24" xml:space="preserve">
<rect fill="#4b4b4b" x="2" y="23" width="20" height="1"/>
<rect fill="#4b4b4b" x="23" y="4" width="1" height="18"/>
<path fill="#4b4b4b" d="M21.984,24v-1C22.544,23,23,22.544,23,21.984h1C24,23.096,23.096,24,21.984,24z"/>
<g color="#4b4b4b">
	<rect fill="currentColor" x="2" y="2" width="20" height="1"/>
	<path fill="currentColor" d="M2,24c-1.103,0-2-0.896-2-2h1c0,0.552,0.449,1,1,1V24z"/>
	<rect fill="currentColor" y="4" width="1" height="18"/>
	<path fill="currentColor" d="M1,4H0c0-1.102,0.897-2,2-2v1C1.449,3,1,3.448,1,4z"/>
	<path fill="currentColor" d="M24,4h-1c0-0.552-0.449-1-1-1V2C23.104,2,24,2.898,24,4z"/>
	<path fill="currentColor" d="M6.5,4.5C6.224,4.5,6,4.276,6,4V1c0-0.276,0.224-0.5,0.5-0.5S7,0.724,7,1v3C7,4.276,6.776,4.5,6.5,4.5z"/>
	<path fill="currentColor" d="M17.5,4.5C17.225,4.5,17,4.276,17,4V1c0-0.276,0.225-0.5,0.5-0.5S18,0.724,18,1v3C18,4.276,17.775,4.5,17.5,4.5z"/>
	<path fill="currentColor" d="M20,7H4C3.724,7,3.5,6.776,3.5,6.5S3.724,6,4,6h16c0.275,0,0.5,0.224,0.5,0.5S20.275,7,20,7z"/>
	<path fill="currentColor" d="M7,10H4c-0.276,0-0.5-0.224-0.5-0.5S3.724,9,4,9h3c0.276,0,0.5,0.224,0.5,0.5S7.276,10,7,10z"/>
	<path fill="currentColor" d="M14,10h-4c-0.276,0-0.5-0.224-0.5-0.5S9.724,9,10,9h4c0.275,0,0.5,0.224,0.5,0.5S14.275,10,14,10z"/>
	<path fill="currentColor" d="M20,10h-3c-0.275,0-0.5-0.224-0.5-0.5S16.725,9,17,9h3c0.275,0,0.5,0.224,0.5,0.5S20.275,10,20,10z"/>
	<path fill="currentColor" d="M7,13H4c-0.276,0-0.5-0.225-0.5-0.5C3.5,12.224,3.724,12,4,12h3c0.276,0,0.5,0.224,0.5,0.5C7.5,12.775,7.276,13,7,13z"/>
	<path fill="currentColor" d="M14,13h-4c-0.276,0-0.5-0.225-0.5-0.5c0-0.276,0.224-0.5,0.5-0.5h4c0.275,0,0.5,0.224,0.5,0.5C14.5,12.775,14.275,13,14,13
		z"/>
	<path fill="currentColor" d="M20,13h-3c-0.275,0-0.5-0.225-0.5-0.5c0-0.276,0.225-0.5,0.5-0.5h3c0.275,0,0.5,0.224,0.5,0.5C20.5,12.775,20.275,13,20,13
		z"/>
	<path fill="currentColor" d="M7,16H4c-0.276,0-0.5-0.225-0.5-0.5S3.724,15,4,15h3c0.276,0,0.5,0.225,0.5,0.5S7.276,16,7,16z"/>
	<path fill="currentColor" d="M14,16h-4c-0.276,0-0.5-0.225-0.5-0.5S9.724,15,10,15h4c0.275,0,0.5,0.225,0.5,0.5S14.275,16,14,16z"/>
	<path fill="currentColor" d="M20,16h-3c-0.275,0-0.5-0.225-0.5-0.5S16.725,15,17,15h3c0.275,0,0.5,0.225,0.5,0.5S20.275,16,20,16z"/>
	<path fill="currentColor" d="M7,19H4c-0.276,0-0.5-0.225-0.5-0.5S3.724,18,4,18h3c0.276,0,0.5,0.225,0.5,0.5S7.276,19,7,19z"/>
	<path fill="currentColor" d="M14,19h-4c-0.276,0-0.5-0.225-0.5-0.5S9.724,18,10,18h4c0.275,0,0.5,0.225,0.5,0.5S14.275,19,14,19z"/>
	<path fill="currentColor" d="M20,19h-3c-0.275,0-0.5-0.225-0.5-0.5S16.725,18,17,18h3c0.275,0,0.5,0.225,0.5,0.5S20.275,19,20,19z"/>
</g>
</svg>
