<?xml version="1.0" encoding="utf-8"?>
<!-- Generator: Adobe Illustrator 16.0.0, SVG Export Plug-In . SVG Version: 6.00 Build 0)  -->
<!DOCTYPE svg PUBLIC "-//W3C//DTD SVG 1.1//EN" "http://www.w3.org/Graphics/SVG/1.1/DTD/svg11.dtd">
<svg version="1.1" id="Layer_1" xmlns="http://www.w3.org/2000/svg" xmlns:xlink="http://www.w3.org/1999/xlink" x="0px" y="0px"
	 width="120px" height="120px" viewBox="0 0 120 120" enable-background="new 0 0 120 120" xml:space="preserve">
<g id="icomoon-ignore">
	<line fill="#000000" stroke="#449FDB" x1="0" y1="0" x2="0" y2="0"/>
</g>
<path fill="#000000" d="M37.5,84.5c-0.512,0-1.024-0.195-1.416-0.584c-0.78-0.775-0.78-2.048,0-2.828l45-45
	c0.779-0.78,2.053-0.78,2.828,0c0.779,0.78,0.779,2.048,0,2.828l-45,45C38.524,84.305,38.012,84.5,37.5,84.5z"/>
<path fill="#000000" d="M82.5,84.5c-0.512,0-1.023-0.195-1.416-0.584l-45-45c-0.78-0.78-0.78-2.048,0-2.828
	c0.78-0.78,2.048-0.78,2.828,0l45,45c0.779,0.78,0.779,2.053,0,2.828C83.523,84.305,83.012,84.5,82.5,84.5z"/>
</svg>
