<?xml version="1.0" encoding="utf-8"?>
<!-- Generator: Adobe Illustrator 16.0.0, SVG Export Plug-In . SVG Version: 6.00 Build 0)  -->
<!DOCTYPE svg PUBLIC "-//W3C//DTD SVG 1.1//EN" "http://www.w3.org/Graphics/SVG/1.1/DTD/svg11.dtd">
<svg version="1.1" id="Layer_1" xmlns="http://www.w3.org/2000/svg" xmlns:xlink="http://www.w3.org/1999/xlink" x="0px" y="0px"
	 width="24px" height="24px" viewBox="0 0 24 24" enable-background="new 0 0 24 24" xml:space="preserve">
<g>
	<path d="M5,18c-0.154,0-0.307-0.071-0.404-0.207l-4-5.5c-0.128-0.175-0.128-0.412,0-0.587l4-5.5
		c0.161-0.224,0.474-0.273,0.697-0.11c0.225,0.162,0.273,0.475,0.11,0.698l-3.786,5.206l3.786,5.207
		c0.163,0.224,0.113,0.536-0.11,0.698C5.205,17.969,5.104,18,5,18z"/>
	<path d="M23,12.5H1c-0.275,0-0.5-0.224-0.5-0.5s0.225-0.5,0.5-0.5h22c0.276,0,0.5,0.224,0.5,0.5S23.276,12.5,23,12.5z"/>
</g>
</svg>
