<?xml version="1.0" encoding="utf-8"?>
<!-- Generator: Adobe Illustrator 16.0.0, SVG Export Plug-In . SVG Version: 6.00 Build 0)  -->
<!DOCTYPE svg PUBLIC "-//W3C//DTD SVG 1.1//EN" "http://www.w3.org/Graphics/SVG/1.1/DTD/svg11.dtd">
<svg version="1.1" id="Layer_1" xmlns="http://www.w3.org/2000/svg" xmlns:xlink="http://www.w3.org/1999/xlink" x="0px" y="0px"
	 width="24px" height="24px" viewBox="0 0 24 24" enable-background="new 0 0 24 24" xml:space="preserve">
<g>
	<path d="M19,18.001c-0.103,0-0.205-0.03-0.293-0.097c-0.225-0.162-0.273-0.475-0.11-0.697L22.383,12l-3.786-5.206
		c-0.163-0.223-0.113-0.536,0.11-0.698c0.223-0.163,0.537-0.114,0.697,0.11l4,5.5c0.128,0.175,0.128,0.412,0,0.587l-4,5.5
		C19.307,17.93,19.153,18.001,19,18.001z"/>
	<path d="M23,12.501H1c-0.276,0-0.5-0.224-0.5-0.5s0.224-0.5,0.5-0.5h22c0.275,0,0.5,0.224,0.5,0.5S23.275,12.501,23,12.501z"/>
</g>
</svg>
